<?xml version="1.0" encoding="UTF-8" standalone="no"?>
<!DOCTYPE svg PUBLIC "-//W3C//DTD SVG 1.1//EN" "http://www.w3.org/Graphics/SVG/1.1/DTD/svg11.dtd">
<svg width="100%" height="100%" viewBox="0 0 840 779" version="1.1" xmlns="http://www.w3.org/2000/svg" xmlns:xlink="http://www.w3.org/1999/xlink" xml:space="preserve" xmlns:serif="http://www.serif.com/" style="fill-rule:evenodd;clip-rule:evenodd;stroke-linejoin:round;stroke-miterlimit:2;">
    <g transform="matrix(1,0,0,1,-110,-148)">
        <path d="M768,359.4C789.6,336.5 804.9,307.7 803.2,275.3C801.1,236.4 787.5,153.9 787.1,158.7C786.8,163.3 730.3,171.6 729.4,171.4C724.9,172.7 679.5,185.2 658.6,194.3C646,199.8 636.3,204.7 625.4,213C611.6,223.5 601.2,235.9 591.6,249.4C571.6,245.2 550.6,242.8 529.1,242.8C510.4,242.8 492.1,244.5 474.4,247.8C465.1,234.9 455,223 441.7,212.9C430.8,204.6 421.2,199.7 408.6,194.2C387.6,185 342.3,172.6 337.8,171.3C336.9,171.5 280.4,163.2 280.1,158.6C279.7,153.8 266.1,236.3 264,275.2C262.3,307 277,335.3 297.9,358C288.5,372.2 281.1,387.5 275.9,403.4C266.7,427.4 261.6,453.1 261.6,479.9C261.6,610.8 381.4,717 529.1,717C676.8,717 796.6,610.9 796.6,480C797.5,472.8 798,465.4 798,457.9C798,422.4 787.2,388.9 768,359.4Z" style="fill-rule:nonzero;"/>
        <path d="M729.5,171.3C729.3,171.3 729.3,171.4 729.3,171.4C729.8,171.3 729.9,171.2 729.5,171.3Z" style="fill:rgb(29,29,27);fill-rule:nonzero;"/>
        <path d="M337.8,171.4L337.6,171.3C337.3,171.2 337.4,171.3 337.8,171.4Z" style="fill:rgb(29,29,27);fill-rule:nonzero;"/>
    </g>
    <g transform="matrix(1,0,0,1,-110,-148)">
        <g>
            <path d="M530.2,540.2C531.4,547.1 532.3,554 533.2,560.9L533.2,576.4C533.2,576.5 533.3,577 533.6,577.6C533.9,578.2 534.3,578.8 534.7,579.4C535.1,580 535.6,580.7 536.1,581.4L536.9,582.5L537.3,583.1L537.7,583.6C538.7,585 539.6,586.3 540.7,587.6C541.7,588.9 542.8,590.2 543.9,591.3C545.1,592.4 546.1,593.6 547.4,594.5C548.6,595.5 550,596.3 551.3,597.1C552,597.5 552.7,597.8 553.4,598.1C553.7,598.3 554.1,598.4 554.5,598.6L555.6,598.9L556.7,599.3C557.1,599.4 557.4,599.5 557.8,599.6L560.1,600.1C561.7,600.2 563.2,600.5 564.8,600.4C566.4,600.4 568,600.2 569.6,600.1L572,599.7C572.8,599.6 573.6,599.3 574.4,599.1C577.6,598.3 580.7,597.2 583.7,595.8C585.2,595.2 586.7,594.4 588.2,593.7C589.7,592.9 591.2,592.1 592.6,591.3C595.5,589.6 598.3,587.9 600.9,585.9C603.5,583.9 605.8,581.7 607.8,579.2C608.8,577.9 609.7,576.6 610.5,575.2C610.9,574.5 611.3,573.8 611.6,573.1C611.9,572.4 612.2,571.6 612.6,570.9C614.3,568.1 615.6,565.1 616.7,561.9C617.8,558.7 618.5,555.3 619.2,551.9C619.4,553.6 619.7,555.4 619.8,557.1C619.9,558.9 619.9,560.6 619.9,562.4C619.7,566 619.1,569.6 618.1,573.2C616.7,576.6 614.8,579.8 612.5,582.7C610.2,585.7 607.5,588.2 604.6,590.4C601.7,592.6 598.7,594.5 595.6,596.3C594.1,597.2 592.5,598 590.9,598.8C589.3,599.6 587.7,600.4 586.1,601.1C582.8,602.6 579.4,603.8 575.9,604.7C575,604.9 574.1,605.2 573.2,605.3L570.5,605.8C568.7,606 566.8,606.3 565,606.2C563.1,606.3 561.2,606 559.4,605.9L556.6,605.3C556.1,605.2 555.7,605.1 555.2,604.9L553.8,604.5L552.5,604.1C552.1,603.9 551.6,603.7 551.2,603.5C550.3,603.1 549.4,602.7 548.6,602.3C547,601.3 545.3,600.4 543.9,599.2C542.4,598.1 541.1,596.8 539.7,595.5C538.4,594.2 537.2,592.8 536.1,591.4C535,590 533.9,588.6 532.9,587.1L532.5,586.6L532.2,586.2L531.4,585.2C530.9,584.5 530.3,583.8 529.8,583C529.3,582.2 528.7,581.4 528.3,580.4C527.8,579.4 527.3,578.3 527.3,576.6L527.3,561.1C528.1,554 529,547.1 530.2,540.2Z" style="fill:rgb(147,192,31);fill-rule:nonzero;"/>
            <path d="M530.2,507.1C531.1,523.7 531.9,540.3 532.6,556.9C532.7,557.9 532.9,559 533,560C533.2,561 533.2,562.1 533.1,563.1C533,565.2 533.1,567.3 533,569.3L533,576.9C533,577.1 533,577.4 532.9,577.6C532.7,578.5 532.5,579.2 532.2,579.8C531.6,581 531,582 530.3,583C529.6,583.9 529,584.8 528.3,585.6L527.5,586.8L526.6,588.1C525.3,589.8 524,591.5 522.6,593.2C521.2,594.8 519.6,596.4 517.9,597.9C516.2,599.4 514.3,600.7 512.3,601.8C508.3,604.1 503.9,605.5 499.3,605.9C494.8,606.4 490.3,605.9 486,604.9C477.4,602.9 469.6,599 462.4,594.7C458.7,592.5 455.1,590 451.9,587C448.6,584 445.8,580.4 443.7,576.5C443.2,575.5 442.6,574.5 442.1,573.5C441.7,572.5 441.4,571.4 441.1,570.3C440.6,568.1 440.2,566 440,563.8C439.8,561.6 439.8,559.5 439.9,557.3C440,555.1 440.3,553.1 440.6,551C441,553.1 441.4,555.1 441.9,557.1C442.4,559.1 443,561 443.7,562.9C444.4,564.8 445.2,566.6 446.2,568.3C446.4,568.7 446.7,569.2 446.9,569.6C447.2,570 447.4,570.4 447.6,570.9C448,571.8 448.3,572.7 448.8,573.5C450.7,576.9 453,579.9 455.8,582.5C458.7,585.1 461.9,587.4 465.4,589.5C472.4,593.7 479.7,597.3 487.3,599C491.1,599.8 495,600.2 498.7,599.8C502.5,599.4 506.1,598.3 509.3,596.5C510.9,595.6 512.5,594.5 513.9,593.3C515.3,592 516.7,590.7 518,589.2C519.3,587.7 520.5,586.2 521.7,584.5L522.6,583.3L523.6,581.9C524.3,581.1 524.8,580.3 525.4,579.5C525.9,578.7 526.4,578 526.7,577.3C526.9,577 526.9,576.7 527,576.5L527,569.3C527,567.2 527.1,565.1 527,563.1C526.9,562.1 527,561 527.2,560C527.3,559 527.5,557.9 527.6,556.9C528.4,540.3 529.2,523.7 530.2,507.1Z" style="fill:rgb(147,192,31);fill-rule:nonzero;"/>
        </g>
        <path d="M496.7,507.6C501.9,505.7 507.1,503.3 512.5,502C519.7,500.2 527.2,500.6 534.5,500.6C545.1,500.6 562.8,507.6 562.8,507.6L529.7,539.7L496.7,507.6Z" style="fill:rgb(147,192,31);fill-rule:nonzero;"/>
        <g>
            <path d="M593.9,525.5C613.1,518.1 632.6,511.8 652.5,506.6C672.3,501.4 692.5,497.3 712.7,494.3C753.3,488.2 794.3,486.3 835.2,486.8C794.3,487.1 753.3,489.7 713,496.4C692.8,499.8 672.9,504.2 653.2,509.7C633.5,515.2 614.2,521.8 595.4,529.5L593.9,525.5Z" style="fill:rgb(147,192,31);fill-rule:nonzero;"/>
            <path d="M621.5,529.2C641.5,524.4 661.7,520.8 682.1,518.3C702.5,515.8 723,514.5 743.5,514.2C784.5,513.6 825.4,517.3 865.9,523.2C825.3,518 784.4,515 743.5,516.3C723.1,516.9 702.7,518.6 682.5,521.4C662.3,524.2 642.3,528.2 622.5,533.2L621.5,529.2Z" style="fill:rgb(147,192,31);fill-rule:nonzero;"/>
            <path d="M638.8,537.5C659.3,537.3 679.9,538.2 700.3,540.3C720.7,542.4 741,545.6 761.1,549.9C801.2,558.4 840.3,571 878.5,585.7C840.1,571.6 800.8,559.7 760.7,551.9C740.7,548 720.4,545.1 700.1,543.4C679.8,541.7 659.3,541.1 639,541.7L638.8,537.5Z" style="fill:rgb(147,192,31);fill-rule:nonzero;"/>
        </g>
        <g>
            <path d="M456.7,527.7C438,520 418.8,513.4 399.3,507.9C379.8,502.4 360,498 340,494.6C300,487.8 259.4,485.3 218.8,485C259.4,484.6 300.1,486.5 340.4,492.6C360.5,495.6 380.5,499.7 400.2,504.9C419.9,510.1 439.3,516.4 458.3,523.8L456.7,527.7Z" style="fill:rgb(147,192,31);fill-rule:nonzero;"/>
            <path d="M429.9,531.6C410.3,526.5 390.4,522.6 370.4,519.8C350.4,517 330.1,515.3 309.9,514.7C269.4,513.5 228.7,516.4 188.5,521.6C228.7,515.7 269.3,512 310,512.6C330.3,512.9 350.7,514.2 370.9,516.7C391.1,519.2 411.2,522.8 431,527.6L429.9,531.6Z" style="fill:rgb(147,192,31);fill-rule:nonzero;"/>
            <path d="M413.6,540C393.4,539.4 373.1,540 352.9,541.7C332.7,543.4 312.6,546.3 292.7,550.2C252.9,558.1 214,570 175.9,584C213.8,569.3 252.5,556.7 292.3,548.2C312.2,543.9 332.3,540.7 352.6,538.6C372.9,536.5 393.3,535.6 413.6,535.8L413.6,540Z" style="fill:rgb(147,192,31);fill-rule:nonzero;"/>
        </g>
    </g>
    <g transform="matrix(1,0,0,1,-110,-148)">
        <path d="M185,670.8L170.5,679.1C153,689.1 138,686.1 128.4,669.2C118.7,652.3 123.7,637.9 141.2,627.9L198,595.4C215.5,585.4 230.5,588.4 240.1,605.3C249.7,622.2 244.8,636.6 227.3,646.6L216.7,652.7L207.4,636.5L219.1,629.8C226.9,625.3 227.9,620.2 224.8,614.7C221.7,609.2 216.7,607.5 208.9,612L149.9,645.8C142.1,650.3 141.3,655.3 144.4,660.8C147.5,666.3 152.3,668.1 160.1,663.6L175.7,654.7L185,670.8Z" style="fill-rule:nonzero;"/>
        <path d="M169.7,729.1L157.3,713.7L255.5,635L267.9,650.4L225.8,684.1L239.9,701.6L282,667.9L294.6,683.6L196.4,762.3L183.8,746.6L225.9,712.9L211.8,695.4L169.7,729.1Z" style="fill-rule:nonzero;"/>
        <path d="M300.6,688.4L314.8,702.2L227.2,792.6L213,778.8L300.6,688.4Z" style="fill-rule:nonzero;"/>
        <path d="M348.1,768.2L338.2,781.3C326.1,797.4 311.7,800.3 295.9,788.3L288.4,782.7L259.9,820.4L244.1,808.5L320.1,708L343.3,725.6C359.1,737.5 360.2,752.1 348.1,768.2ZM325,734.3L299.3,768.3L306.8,773.9C311.8,777.7 316.3,777.5 321.7,770.3L333.1,755.2C338.5,748 337.5,743.7 332.5,739.9L325,734.3Z" style="fill-rule:nonzero;"/>
        <path d="M369.4,743.3L386.6,753.1L324.4,862.5L307.2,852.7L369.4,743.3Z" style="fill-rule:nonzero;"/>
        <path d="M425.5,829.2L452,837.4L440.2,875.5C434.2,894.7 421.2,902.7 402.7,897C384.2,891.2 377.9,877.3 383.9,858L403.3,795.5C409.3,776.3 422.3,768.3 440.8,774C459.3,779.8 465.6,793.7 459.6,813L456,824.7L438.1,819.2L442.1,806.3C444.8,797.7 442,793.3 436,791.4C430,789.5 425.2,791.6 422.5,800.2L402.4,865.1C399.7,873.7 402.5,877.9 408.6,879.8C414.6,881.7 419.3,879.8 422,871.2L428.9,849L420.3,846.3L425.5,829.2Z" style="fill-rule:nonzero;"/>
        <path d="M522.2,916.1L502.3,914.1L501.1,891L476.9,888.6L471.3,911L453.2,909.2L485.6,786L514.4,788.8L522.2,916.1ZM481.2,872L500.2,873.9L497.1,809.6L496.7,809.6L481.2,872Z" style="fill-rule:nonzero;"/>
        <path d="M522.3,790.4L583.3,785.8L584.6,803.7L564,805.2L572.1,912.8L552.4,914.3L544.3,806.7L523.7,808.2L522.3,790.4Z" style="fill-rule:nonzero;"/>
        <path d="M588.5,815.3C583.2,795.9 590.4,782 609.1,776.9C627.8,771.8 641.1,780.1 646.4,799.5L663.6,862.6C668.9,882 661.7,895.9 643,901C624.3,906.1 611,897.8 605.7,878.4L588.5,815.3ZM625.2,874.5C627.6,883.2 632.3,885.4 638.4,883.8C644.5,882.2 647.4,877.8 645,869.1L627.1,803.6C624.7,794.9 620,792.7 613.9,794.3C607.8,795.9 604.9,800.3 607.3,809L625.2,874.5Z" style="fill-rule:nonzero;"/>
        <path d="M708.1,797.6L730.2,784.8L739.2,800.4L717.1,813.2L743.1,858.2L726,868.1L663.1,759.1L708.4,732.9L717.4,748.5L689.2,764.8L708.1,797.6Z" style="fill-rule:nonzero;"/>
        <path d="M758,760.6L779,743.4L790.4,757.3L769.4,774.5L792.7,803L819.1,781.4L830.5,795.3L788.8,829.5L709.1,732.1L750.8,697.9L762.2,711.8L735.8,733.4L758,760.6Z" style="fill-rule:nonzero;"/>
        <path d="M753.8,694.5L767.1,679.8L847.1,752.2L868.9,728.1L882.2,740.2L847.1,779L753.8,694.5Z" style="fill-rule:nonzero;"/>
        <path d="M789.8,653L801.5,637L903.1,711.2L891.4,727.2L789.8,653Z" style="fill-rule:nonzero;"/>
        <path d="M834.3,582.8L849.5,591.6L908.7,669.4L927.6,636.9L943.2,645.9L914.2,696L899,687.2L839.8,609.4L821.8,640.4L806.2,631.4L834.3,582.8Z" style="fill-rule:nonzero;"/>
    </g>
</svg>
